<svg width="68" height="20" viewBox="0 0 68 20" fill="none" xmlns="http://www.w3.org/2000/svg">
<path fill-rule="evenodd" clip-rule="evenodd" d="M17.8352 16.7596C18.7235 17.1302 19.703 17.3155 20.7736 17.3155C21.8443 17.3155 22.8208 17.1302 23.7032 16.7596C24.5915 16.3831 25.3533 15.8625 25.9886 15.1977C26.6239 14.533 27.1181 13.7477 27.471 12.8417C27.824 11.9299 28.0005 10.9387 28.0005 9.86804C28.0005 7.65616 27.3416 5.87665 26.0239 4.52952C24.7121 3.17651 22.962 2.5 20.7736 2.5C18.5853 2.5 16.8322 3.17651 15.5145 4.52952C14.2027 5.87665 13.5468 7.64145 13.5468 9.82393C13.5468 12.0005 14.2174 13.7918 15.5586 15.1977C16.194 15.8625 16.9528 16.3831 17.8352 16.7596ZM4.5 10.5L7.05124 9.1146V16.989H11.782V4.16597C11.782 3.46518 11.2139 2.89708 10.5131 2.89708C10.281 2.89708 10.0534 2.96071 9.85504 3.08104L4.5 6.329V10.5ZM29.7565 4.30406C29.7565 3.52701 30.3864 2.89708 31.1634 2.89708C31.5548 2.89708 31.9284 3.06007 32.1947 3.3469L37.7151 9.29448L43.4348 3.3187C43.6926 3.04939 44.0492 2.89708 44.422 2.89708C45.1767 2.89708 45.7885 3.50888 45.7885 4.26356V16.989H40.714V11.6953L37.9464 14.8675C37.5862 15.2804 36.9442 15.2802 36.5843 14.867L33.9133 11.8012V16.989H29.7565V4.30406ZM49.375 2.89708C48.5979 2.89708 47.968 3.52701 47.968 4.30406V16.989H52.1248V11.8012L54.7958 14.867C55.1558 15.2802 55.7977 15.2804 56.158 14.8675L58.9255 11.6953V16.989H64V4.26357C64 3.50888 63.3882 2.89708 62.6335 2.89708C62.2607 2.89708 61.9041 3.04939 61.6463 3.3187L55.9266 9.29448L50.4062 3.3469C50.14 3.06007 49.7663 2.89708 49.375 2.89708ZM24.3668 10.1173C24.3721 10.0176 24.2907 9.93664 24.1909 9.93664H22.0345C21.8386 9.93664 21.7827 9.6684 21.9624 9.59021L23.9527 8.72418C24.0432 8.68481 24.0858 8.57988 24.0431 8.49095C23.7201 7.81852 23.1805 7.27773 22.5125 6.96157C21.7915 6.62036 20.9724 6.5651 20.2138 6.80651C19.4553 7.04792 18.8115 7.5688 18.4072 8.26814C18.0028 8.96749 17.8669 9.79547 18.0256 10.5915C18.1843 11.3876 18.6263 12.0951 19.2661 12.5767C19.9059 13.0583 20.6977 13.2798 21.4881 13.1983C22.2785 13.1167 23.0111 12.7379 23.5439 12.1352C24.037 11.5774 24.3264 10.8646 24.3668 10.1173Z" fill="url(#paint0_linear_1535_50771)"/>
<defs>
<linearGradient id="paint0_linear_1535_50771" x1="4.5" y1="2.5" x2="64.7117" y2="6.44084" gradientUnits="userSpaceOnUse">
<stop stop-color="#FAD0DE"/>
<stop offset="0.46875" stop-color="#E8CBFF"/>
<stop offset="1" stop-color="#BCCFFF"/>
</linearGradient>
</defs>
</svg>
