<svg width="334" height="260" viewBox="0 0 334 260" fill="none" xmlns="http://www.w3.org/2000/svg">
<g id="graphic">
<g id="Ellipse 745" filter="url(#filter0_f_3166_86311)">
<circle cx="166.462" cy="144.7" r="58.3989" fill="#807EFF" fill-opacity="0.8"/>
</g>
<g id="Ellipse 746" filter="url(#filter1_f_3166_86311)">
<circle cx="100.548" cy="99.5996" r="19.0808" fill="#AF7EFF" fill-opacity="0.8"/>
</g>
<g id="Ellipse 747" filter="url(#filter2_f_3166_86311)">
<circle cx="230.064" cy="148.171" r="22.5501" fill="#4845FF" fill-opacity="0.8"/>
</g>
<g id="Union">
<mask id="path-4-inside-1_3166_86311" fill="white">
<path fill-rule="evenodd" clip-rule="evenodd" d="M75.4589 104.846C68.0604 98.1135 64.5809 90.4768 67.4167 85.5651C71.2336 78.9539 85.0467 79.783 98.2691 87.4169C111.491 95.0509 119.116 106.599 115.299 113.21C113.856 115.709 110.985 117.145 107.257 117.552C114.655 124.284 118.135 131.921 115.299 136.833C111.482 143.444 97.669 142.615 84.4466 134.981C71.2243 127.347 63.5997 115.799 67.4167 109.188C68.8596 106.689 71.7309 105.253 75.4589 104.846Z"/>
</mask>
<path fill-rule="evenodd" clip-rule="evenodd" d="M75.4589 104.846C68.0604 98.1135 64.5809 90.4768 67.4167 85.5651C71.2336 78.9539 85.0467 79.783 98.2691 87.4169C111.491 95.0509 119.116 106.599 115.299 113.21C113.856 115.709 110.985 117.145 107.257 117.552C114.655 124.284 118.135 131.921 115.299 136.833C111.482 143.444 97.669 142.615 84.4466 134.981C71.2243 127.347 63.5997 115.799 67.4167 109.188C68.8596 106.689 71.7309 105.253 75.4589 104.846Z" fill="#E8E8E8"/>
<path d="M75.4589 104.846L75.8354 108.294L83.4858 107.459L77.7937 102.28L75.4589 104.846ZM67.4167 85.5651L70.4211 87.2997V87.2997L67.4167 85.5651ZM98.2691 87.4169L96.5344 90.4214L98.2691 87.4169ZM115.299 113.21L118.303 114.945L118.303 114.945L115.299 113.21ZM107.257 117.552L106.88 114.103L99.2299 114.939L104.922 120.118L107.257 117.552ZM115.299 136.833L118.303 138.567V138.567L115.299 136.833ZM84.4466 134.981L86.1812 131.976H86.1812L84.4466 134.981ZM67.4167 109.188L64.4122 107.453H64.4122L67.4167 109.188ZM77.7937 102.28C74.3437 99.1403 71.9795 95.9381 70.7893 93.1575C69.5844 90.3427 69.757 88.4499 70.4211 87.2997L64.4122 83.8305C62.2405 87.592 62.735 91.9734 64.4106 95.8879C66.1008 99.8365 69.1756 103.819 73.124 107.411L77.7937 102.28ZM70.4211 87.2997C71.3186 85.7452 73.9364 84.3017 79.108 84.6121C84.048 84.9086 90.2886 86.8153 96.5344 90.4214L100.004 84.4125C93.0272 80.3846 85.7501 78.0598 79.5237 77.6861C73.5289 77.3263 67.3317 78.7738 64.4122 83.8305L70.4211 87.2997ZM96.5344 90.4214C102.78 94.0275 107.552 98.4786 110.279 102.609C113.133 106.932 113.192 109.921 112.295 111.475L118.303 114.945C121.223 109.888 119.378 103.797 116.069 98.7855C112.632 93.5802 106.98 88.4404 100.004 84.4125L96.5344 90.4214ZM112.295 111.475C111.619 112.645 110.02 113.761 106.88 114.103L107.633 121.001C111.949 120.53 116.093 118.773 118.303 114.945L112.295 111.475ZM104.922 120.118C108.372 123.257 110.736 126.46 111.926 129.24C113.131 132.055 112.959 133.948 112.295 135.098L118.303 138.567C120.475 134.806 119.981 130.424 118.305 126.51C116.615 122.561 113.54 118.579 109.592 114.986L104.922 120.118ZM112.295 135.098C111.397 136.652 108.779 138.096 103.608 137.786C98.6677 137.489 92.4271 135.582 86.1812 131.976L82.712 137.985C89.6885 142.013 96.9656 144.338 103.192 144.712C109.187 145.071 115.384 143.624 118.303 138.567L112.295 135.098ZM86.1812 131.976C79.9353 128.37 75.1638 123.919 72.437 119.789C69.5824 115.466 69.5236 112.477 70.4211 110.922L64.4122 107.453C61.4927 112.51 63.3378 118.6 66.6468 123.612C70.0836 128.818 75.7355 133.957 82.712 137.985L86.1812 131.976ZM70.4211 110.922C71.0966 109.752 72.6956 108.637 75.8354 108.294L75.0823 101.397C70.7662 101.868 66.6225 103.625 64.4122 107.453L70.4211 110.922Z" fill="#D8D8DD" mask="url(#path-4-inside-1_3166_86311)"/>
</g>
<g id="Union_2">
<mask id="path-6-inside-2_3166_86311" fill="white">
<path fill-rule="evenodd" clip-rule="evenodd" d="M243.033 108.312C250.222 101.58 253.604 93.9436 250.848 89.0318C247.139 82.4206 233.715 83.2498 220.866 90.8837C208.016 98.5176 200.607 110.066 204.316 116.677C205.718 119.176 208.508 120.612 212.131 121.019C204.941 127.751 201.56 135.388 204.316 140.299C208.025 146.911 221.449 146.081 234.298 138.447C247.148 130.814 254.557 119.266 250.848 112.654C249.446 110.155 246.655 108.719 243.033 108.312Z"/>
</mask>
<path fill-rule="evenodd" clip-rule="evenodd" d="M243.033 108.312C250.222 101.58 253.604 93.9436 250.848 89.0318C247.139 82.4206 233.715 83.2498 220.866 90.8837C208.016 98.5176 200.607 110.066 204.316 116.677C205.718 119.176 208.508 120.612 212.131 121.019C204.941 127.751 201.56 135.388 204.316 140.299C208.025 146.911 221.449 146.081 234.298 138.447C247.148 130.814 254.557 119.266 250.848 112.654C249.446 110.155 246.655 108.719 243.033 108.312Z" fill="#E8E8E8"/>
<path d="M243.033 108.312L242.645 111.76L235.172 110.92L240.661 105.78L243.033 108.312ZM250.848 89.0318L247.822 90.7294L250.848 89.0318ZM220.866 90.8837L222.638 93.8663L220.866 90.8837ZM204.316 116.677L201.29 118.374V118.374L204.316 116.677ZM212.131 121.019L212.519 117.571L219.992 118.411L214.502 123.551L212.131 121.019ZM204.316 140.299L207.341 138.602V138.602L204.316 140.299ZM234.298 138.447L232.526 135.465H232.526L234.298 138.447ZM250.848 112.654L253.873 110.957L250.848 112.654ZM240.661 105.78C244.008 102.646 246.307 99.445 247.467 96.657C248.642 93.8309 248.481 91.9041 247.822 90.7294L253.873 87.3343C255.97 91.0713 255.497 95.4187 253.873 99.3219C252.234 103.263 249.247 107.246 245.404 110.845L240.661 105.78ZM247.822 90.7294C246.96 89.1923 244.471 87.7713 239.498 88.0785C234.734 88.3727 228.695 90.2674 222.638 93.8663L219.094 87.9011C225.885 83.8661 232.983 81.5292 239.07 81.1532C244.949 80.7901 251.027 82.2601 253.873 87.3343L247.822 90.7294ZM222.638 93.8663C216.583 97.4635 211.951 101.907 209.301 106.037C206.53 110.356 206.448 113.386 207.341 114.979L201.29 118.374C198.475 113.356 200.242 107.307 203.461 102.29C206.801 97.085 212.299 91.9378 219.094 87.9011L222.638 93.8663ZM207.341 114.979C207.995 116.145 209.52 117.234 212.519 117.571L211.744 124.466C207.497 123.989 203.441 122.207 201.29 118.374L207.341 114.979ZM214.502 123.551C211.156 126.685 208.857 129.886 207.697 132.674C206.522 135.5 206.682 137.427 207.341 138.602L201.29 141.997C199.194 138.26 199.667 133.913 201.291 130.009C202.93 126.068 205.917 122.085 209.76 118.487L214.502 123.551ZM207.341 138.602C208.204 140.139 210.693 141.56 215.666 141.253C220.429 140.958 226.469 139.064 232.526 135.465L236.07 141.43C229.278 145.465 222.181 147.802 216.093 148.178C210.215 148.541 204.137 147.071 201.29 141.997L207.341 138.602ZM232.526 135.465C238.581 131.868 243.213 127.424 245.863 123.294C248.634 118.976 248.716 115.945 247.822 114.352L253.873 110.957C256.689 115.975 254.922 122.024 251.702 127.041C248.363 132.246 242.865 137.393 236.07 141.43L232.526 135.465ZM247.822 114.352C247.169 113.187 245.644 112.097 242.645 111.76L243.42 104.865C247.666 105.342 251.723 107.124 253.873 110.957L247.822 114.352Z" fill="#D8D8DD" mask="url(#path-6-inside-2_3166_86311)"/>
</g>
<path id="Ellipse 755" d="M194.215 74.7377C194.215 75.1942 193.865 76.0337 192.224 77.1153C190.652 78.1513 188.262 79.151 185.154 80.0173C178.961 81.743 170.308 82.8326 160.679 82.8326C151.051 82.8326 142.397 81.743 136.205 80.0173C133.097 79.151 130.707 78.1513 129.135 77.1153C127.493 76.0337 127.143 75.1942 127.143 74.7377C127.143 74.2813 127.493 73.4417 129.135 72.3601C130.707 71.3242 133.097 70.3244 136.205 69.4581C142.397 67.7324 151.051 66.6428 160.679 66.6428C170.308 66.6428 178.961 67.7324 185.154 69.4581C188.262 70.3244 190.652 71.3242 192.224 72.3601C193.865 73.4417 194.215 74.2813 194.215 74.7377Z" stroke="url(#paint0_linear_3166_86311)" stroke-width="3.46924"/>
<circle id="Ellipse 779" cx="190.902" cy="180.285" r="19.0808" fill="#8483D9"/>
<circle id="Ellipse 757" cx="74.3603" cy="161.36" r="6.36027" fill="#C5C4FC"/>
<circle id="Ellipse 780" cx="56" cy="126" r="3" fill="#C5C4FC"/>
<g id="Group 1171277352">
<path id="Ellipse 760" d="M161.987 141.314C172.273 157.402 198.439 185.749 215.933 175.81C233.278 163.813 215.964 126.393 205.677 110.306C195.391 94.2191 177.272 88.1192 165.207 96.6819C153.142 105.245 151.7 125.227 161.987 141.314Z" fill="url(#paint1_linear_3166_86311)"/>
<path id="Ellipse 761" d="M153.826 137.493C143.099 153.414 114.696 183.167 99.0312 172.617C87.254 164.685 100.45 124.69 111.177 108.769C121.904 92.8486 140.148 86.3725 151.925 94.3044C163.702 102.236 164.553 121.573 153.826 137.493Z" fill="#EEEEEE"/>
<ellipse id="Ellipse 762" cx="25.215" cy="46.2795" rx="25.215" ry="46.2795" transform="matrix(0.901972 0.431794 -0.469388 0.882992 160.072 83.5221)" fill="#EEEEEE"/>
<ellipse id="Ellipse 763" cx="148.941" cy="137.816" rx="3.38405" ry="6.76809" transform="rotate(30 148.941 137.816)" fill="#18181D"/>
<ellipse id="Ellipse 764" cx="135.721" cy="137.816" rx="3.38405" ry="6.76809" transform="rotate(30 135.721 137.816)" fill="#18181D"/>
<circle id="rt" cx="267.5" cy="99.5" r="5.5" fill="url(#paint2_linear_3166_86311)"/>
</g>
</g>
<defs>
<filter id="filter0_f_3166_86311" x="27.1145" y="5.35176" width="278.696" height="278.696" filterUnits="userSpaceOnUse" color-interpolation-filters="sRGB">
<feFlood flood-opacity="0" result="BackgroundImageFix"/>
<feBlend mode="normal" in="SourceGraphic" in2="BackgroundImageFix" result="shape"/>
<feGaussianBlur stdDeviation="40.4744" result="effect1_foregroundBlur_3166_86311"/>
</filter>
<filter id="filter1_f_3166_86311" x="0.517899" y="-0.430099" width="200.059" height="200.059" filterUnits="userSpaceOnUse" color-interpolation-filters="sRGB">
<feFlood flood-opacity="0" result="BackgroundImageFix"/>
<feBlend mode="normal" in="SourceGraphic" in2="BackgroundImageFix" result="shape"/>
<feGaussianBlur stdDeviation="40.4744" result="effect1_foregroundBlur_3166_86311"/>
</filter>
<filter id="filter2_f_3166_86311" x="126.565" y="44.6722" width="206.998" height="206.998" filterUnits="userSpaceOnUse" color-interpolation-filters="sRGB">
<feFlood flood-opacity="0" result="BackgroundImageFix"/>
<feBlend mode="normal" in="SourceGraphic" in2="BackgroundImageFix" result="shape"/>
<feGaussianBlur stdDeviation="40.4744" result="effect1_foregroundBlur_3166_86311"/>
</filter>
<linearGradient id="paint0_linear_3166_86311" x1="125.409" y1="64.9082" x2="196.855" y2="69.0862" gradientUnits="userSpaceOnUse">
<stop stop-color="#FAD0DE"/>
<stop offset="0.46875" stop-color="#E8CBFF"/>
<stop offset="1" stop-color="#BCCFFF"/>
</linearGradient>
<linearGradient id="paint1_linear_3166_86311" x1="187.052" y1="81.1778" x2="141.488" y2="110.911" gradientUnits="userSpaceOnUse">
<stop stop-color="#B9CDFF"/>
<stop offset="0.848958" stop-color="#E9CEFF"/>
<stop offset="1" stop-color="#FFE5EE"/>
</linearGradient>
<linearGradient id="paint2_linear_3166_86311" x1="263.375" y1="92.1896" x2="274.666" y2="94.8579" gradientUnits="userSpaceOnUse">
<stop stop-color="#F3D2EA"/>
<stop offset="0.359375" stop-color="#D8B8F1"/>
<stop offset="1" stop-color="#ABBEF0"/>
</linearGradient>
</defs>
</svg>
